<?xml version="1.0" encoding="UTF-8" standalone="no"?>
<!DOCTYPE svg PUBLIC "-//W3C//DTD SVG 1.1//EN" "http://www.w3.org/Graphics/SVG/1.1/DTD/svg11.dtd">
<svg width="100%" height="100%" viewBox="0 0 770 770" version="1.1" xmlns="http://www.w3.org/2000/svg" xmlns:xlink="http://www.w3.org/1999/xlink" xml:space="preserve" xmlns:serif="http://www.serif.com/" style="fill-rule:evenodd;clip-rule:evenodd;stroke-linejoin:round;stroke-miterlimit:2;">
    <g>
        <g transform="matrix(1,0,0,1,-115,-115.11)">
            <path d="M721.902,723.365C716.478,720.708 710.61,719.141 704.532,718.636C700.179,704.506 693.204,691.432 683.7,679.736L681.808,677.412L672.754,608.528C711.378,590.449 733.037,568.16 744.495,552.39C755.206,537.624 752.061,516.488 737.477,505.271L729.707,499.308C739.393,495.331 746.613,487.418 749.592,477.474C752.695,467.108 750.865,456.152 744.57,447.415C744.22,446.928 743.791,446.523 743.333,446.157C741.808,444.23 740.088,442.469 738.204,440.938C728.835,433.218 720.255,422.936 710.611,407.93C743.2,290.598 721.293,193.845 705.214,146.426C700.842,133.485 690.89,123.523 677.908,119.095C664.859,114.641 650.811,116.464 639.366,124.092C570.368,170.072 531.551,239.825 522.676,257.071C522.206,257.035 521.735,257 521.269,256.962C520.726,256.772 520.152,256.647 519.552,256.607C513.471,256.202 506.892,255.996 499.999,255.996C493.106,255.996 486.528,256.202 480.447,256.607C479.851,256.647 479.28,256.771 478.74,256.961C478.28,256.999 477.816,257.034 477.352,257.069C468.475,239.824 429.632,170.071 360.629,124.091C349.196,116.475 335.166,114.649 322.129,119.085C309.145,123.505 299.177,133.469 294.784,146.42C278.704,193.845 256.797,290.598 289.386,407.93C279.725,422.969 271.154,433.253 261.858,440.912C259.984,442.435 258.265,444.188 256.707,446.127C256.233,446.499 255.79,446.914 255.429,447.415C249.133,456.153 247.304,467.108 250.411,477.471C253.394,487.42 260.626,495.334 270.323,499.308L262.555,505.27C247.948,516.475 244.785,537.612 255.506,552.394C266.955,568.15 288.612,590.428 327.275,608.527L318.189,677.427L316.329,679.739C306.828,691.43 299.852,704.506 295.494,718.646C289.407,719.157 283.553,720.705 278.111,723.357C247.73,738.147 238.542,782.149 257.633,821.448C266.758,840.191 280.917,855.169 297.503,863.624C306.897,868.414 316.457,870.821 325.652,870.821C333.262,870.821 340.623,869.17 347.42,865.857C351.564,863.852 355.352,861.287 358.709,858.234C364.899,860.848 372.451,862.962 381.243,864.534C381.793,865.956 382.336,867.368 382.896,868.806L384.692,873.439C386.807,879.604 392.593,883.514 398.771,883.514C400.293,883.514 401.84,883.276 403.36,882.776L450.047,867.632C475.124,866.48 495.502,863.908 499.999,863.311C504.496,863.908 524.875,866.48 549.951,867.632L596.615,882.769C598.139,883.27 599.703,883.518 601.262,883.518C603.572,883.518 605.867,882.971 607.988,881.891C611.474,880.116 614.067,877.114 615.313,873.422L617.074,868.881C617.643,867.419 618.196,865.981 618.755,864.534C627.601,862.953 635.176,860.828 641.296,858.233C644.667,861.3 648.442,863.856 652.562,865.85C659.371,869.169 666.733,870.82 674.352,870.82C683.543,870.82 693.103,868.413 702.494,863.624C719.081,855.169 733.24,840.191 742.37,821.442C761.456,782.147 752.267,738.147 721.902,723.365Z" style="fill-rule:nonzero;"/>
        </g>
        <g transform="matrix(1,0,0,1,-115,-115.11)">
            <path d="M691.485,719.144C671.378,722.254 652.013,735.902 638.643,756.298C638.361,751.119 637.979,745.856 637.382,740.378C637.008,736.927 633.847,734.433 630.459,734.816C627.013,735.192 624.521,738.291 624.897,741.739C626.541,756.815 626.933,770.519 626.096,783.639C626.095,783.653 626.099,783.666 626.098,783.68C626.098,783.683 626.096,783.686 626.096,783.689C625.877,787.274 625.538,790.857 625.099,794.491C616.04,792.18 605.564,792.449 596.254,797.925C591.365,788.031 581.171,777.648 563.358,777.795L568.125,745.066C568.822,740.242 570.145,735.467 572.062,730.861C581.913,707.061 598.777,663.355 604.364,630.634C605.952,630.301 607.599,629.939 609.326,629.543C612.388,628.873 615.419,628.163 618.276,627.449C621.16,626.756 624.16,625.968 627.736,624.963C631.342,623.938 634.084,623.132 636.611,622.354C637.996,621.933 639.48,621.473 640.976,620.965C642.975,620.337 645.047,619.642 647.255,618.86C648.306,618.5 649.356,618.136 650.376,617.745C653.498,616.639 656.821,615.365 660.774,613.758L669.587,680.814C669.74,681.966 670.209,683.056 670.942,683.958L673.956,687.658C681.711,697.204 687.569,707.776 691.485,719.144Z" style="fill:rgb(243,177,91);fill-rule:nonzero;"/>
        </g>
        <g transform="matrix(1,0,0,1,-115,-115.11)">
            <path d="M438.557,790.877L442.676,819.014C443.151,822.261 445.942,824.612 449.172,824.573C449.387,824.57 449.604,824.557 449.823,824.533C464.116,822.95 472.324,832.316 476.808,841.155C477.106,841.744 477.389,842.331 477.655,842.912C477.915,843.489 477.797,844.002 477.651,844.332C477.521,844.627 477.194,845.158 476.49,845.388L465.781,848.861L464.525,845.01C463.452,841.713 459.92,839.906 456.609,840.986C453.313,842.061 451.51,845.605 452.587,848.901L453.836,852.735L441.793,856.641L440.54,852.796C439.467,849.499 435.935,847.692 432.624,848.772C429.328,849.847 427.525,853.391 428.602,856.687L429.85,860.515L399.325,870.418C398.363,870.738 397.307,870.188 396.98,869.196C396.946,869.09 396.909,868.986 396.868,868.882L395.013,864.096C394.039,861.593 393.075,859.113 392.136,856.66C385.737,839.917 381.132,826.525 377.953,811.525C377.644,810.049 377.365,808.67 377.112,807.355C383.471,805.512 393.865,804.48 402.19,813.155C403.867,814.902 406.381,815.552 408.706,814.874C411.031,814.195 412.79,812.26 413.263,809.884C413.7,807.681 417.943,789.592 438.557,790.877Z" style="fill:rgb(247,239,227);fill-rule:nonzero;"/>
        </g>
        <g transform="matrix(1,0,0,1,-115,-115.11)">
            <path d="M487.2,401.057C490.967,356.373 489.672,305.829 487.729,269.236C491.657,269.077 495.763,268.996 499.999,268.996C504.236,268.996 508.342,269.077 512.271,269.236C510.327,305.829 509.032,356.374 512.8,401.061C514.759,424.155 527.241,444.296 547.048,456.319C566.847,468.337 590.466,470.117 611.855,461.2L614.754,459.988C654.518,443.354 692.09,427.631 734.652,455.936C738.057,461.21 738.967,467.637 737.138,473.745C735.214,480.17 730.631,485.053 724.23,487.495C721.057,488.707 717.721,489.776 714.315,490.672C711.917,491.304 710.087,493.245 709.598,495.676C709.108,498.107 710.045,500.605 712.013,502.115L729.557,515.58C738.61,522.543 740.591,535.632 733.975,544.752C723.042,559.8 701.896,581.354 663.275,598.57C661.063,599.544 658.678,600.582 656.22,601.577C652.258,603.191 648.997,604.444 645.958,605.518C645.898,605.539 645.839,605.561 645.78,605.584C644.882,605.931 643.954,606.249 642.974,606.586C640.832,607.344 638.882,607.997 637.011,608.584C636.96,608.6 636.909,608.617 636.858,608.634C635.516,609.092 634.126,609.522 632.807,609.924C630.354,610.678 627.694,611.46 624.199,612.453C620.806,613.407 617.96,614.155 615.184,614.822C612.38,615.523 609.464,616.205 606.517,616.851C606.496,616.855 606.476,616.86 606.455,616.864C603.192,617.612 600.245,618.231 597.442,618.759C594.704,619.274 592.6,621.477 592.209,624.235C587.722,655.927 570.134,701.528 560.055,725.877C557.725,731.476 556.111,737.306 555.26,743.198L549.312,784.031C549.307,784.058 549.298,784.082 549.294,784.109L545.328,811.377C530.293,811.974 518.087,821.076 510.542,837.529C508.8,841.33 508.766,845.712 510.446,849.553C510.637,849.989 510.855,850.409 511.085,850.822C511.151,850.941 511.221,851.057 511.291,851.174C511.374,851.313 511.449,851.456 511.536,851.592C504.951,850.872 500.986,850.327 500.893,850.313C500.597,850.272 500.298,850.252 499.999,850.252C499.7,850.252 499.401,850.272 499.105,850.313C499.012,850.327 495.048,850.872 488.465,851.592C488.548,851.462 488.621,851.324 488.701,851.191C488.77,851.074 488.84,850.958 488.907,850.84C489.136,850.43 489.354,850.013 489.545,849.58C491.235,845.747 491.221,841.367 489.487,837.528C481.941,821.073 469.736,811.971 454.696,811.377L444.74,743.207C443.877,737.231 442.274,731.401 439.977,725.88C429.897,701.633 412.314,656.187 407.79,624.235C407.402,621.493 405.319,619.298 402.602,618.767C394.519,617.188 386.692,615.384 379.319,613.401C370.899,611.164 362.616,608.589 354.69,605.746C348.74,603.618 342.71,601.206 336.783,598.583C298.097,581.337 276.95,559.791 266.026,544.756C259.405,535.628 261.397,522.542 270.468,515.583L288.018,502.115C289.987,500.604 290.924,498.103 290.432,495.669C289.938,493.236 288.104,491.296 285.701,490.669C282.368,489.799 279.037,488.731 275.794,487.493C269.383,485.051 264.79,480.166 262.863,473.738C261.033,467.634 261.943,461.208 265.348,455.935C307.907,427.635 345.482,443.354 385.245,459.988L388.147,461.202C409.532,470.118 433.152,468.337 452.951,456.319C472.758,444.296 485.24,424.155 487.2,401.057Z" style="fill:rgb(247,239,227);fill-rule:nonzero;"/>
        </g>
        <g transform="matrix(1,0,0,1,-115,-115.11)">
            <path d="M586.729,809.848C587.178,812.243 588.927,814.186 591.261,814.882C593.597,815.579 596.122,814.912 597.809,813.155C606.136,804.477 616.537,805.513 622.895,807.357C622.625,808.777 622.347,810.145 622.056,811.478C622.034,811.576 622.016,811.677 621.999,811.778C618.816,826.678 614.227,840.01 607.863,856.658C606.913,859.139 605.94,861.644 604.957,864.172L603.131,868.882C603.085,868.999 603.044,869.117 603.005,869.236C602.803,869.864 602.344,870.177 602.088,870.307C601.773,870.466 601.273,870.616 600.652,870.412L570.163,860.511L571.402,856.67C572.466,853.37 570.654,849.83 567.355,848.766C564.047,847.699 560.515,849.516 559.451,852.813L558.218,856.636L546.163,852.73L547.411,848.901C548.487,845.605 546.685,842.061 543.389,840.986C540.09,839.906 536.548,841.714 535.472,845.01L534.218,848.858L523.523,845.393C522.806,845.158 522.483,844.632 522.355,844.339C522.214,844.017 522.101,843.513 522.359,842.947C522.489,842.665 522.622,842.382 522.759,842.098C522.801,842.01 522.845,841.922 522.888,841.834C522.985,841.637 523.082,841.439 523.182,841.241C523.232,841.141 523.285,841.042 523.336,840.942C523.433,840.753 523.531,840.563 523.632,840.373C523.684,840.275 523.738,840.177 523.791,840.079C523.895,839.887 523.999,839.695 524.106,839.503C524.16,839.408 524.215,839.313 524.269,839.217C524.381,839.021 524.494,838.825 524.61,838.629C524.662,838.54 524.715,838.452 524.768,838.363C524.891,838.159 525.015,837.956 525.141,837.753C525.191,837.673 525.242,837.592 525.293,837.512C525.427,837.3 525.563,837.089 525.702,836.879C525.749,836.808 525.796,836.737 525.844,836.666C525.993,836.443 526.145,836.221 526.299,836.001C526.339,835.944 526.378,835.888 526.418,835.831C526.588,835.591 526.762,835.352 526.939,835.115C526.966,835.079 526.992,835.043 527.019,835.007C527.218,834.742 527.421,834.479 527.629,834.219C527.635,834.211 527.642,834.203 527.648,834.194C529.195,832.258 530.978,830.46 533.026,828.945C533.034,828.939 533.042,828.934 533.05,828.928C533.328,828.722 533.612,828.522 533.901,828.327C533.926,828.31 533.952,828.293 533.978,828.276C534.25,828.094 534.527,827.916 534.809,827.744C534.846,827.721 534.884,827.698 534.922,827.676C535.194,827.511 535.471,827.352 535.752,827.197C535.798,827.172 535.844,827.147 535.889,827.122C536.165,826.973 536.445,826.829 536.729,826.691C536.781,826.665 536.833,826.639 536.885,826.614C537.168,826.479 537.455,826.349 537.746,826.224C537.8,826.201 537.854,826.177 537.909,826.154C538.206,826.029 538.507,825.911 538.812,825.798C538.862,825.78 538.911,825.76 538.961,825.742C539.281,825.626 539.606,825.518 539.935,825.415C539.973,825.403 540.009,825.39 540.047,825.379C541.522,824.928 543.092,824.614 544.762,824.462C544.863,824.453 544.966,824.448 545.068,824.44C545.376,824.416 545.686,824.394 546.001,824.381C546.147,824.375 546.296,824.374 546.443,824.371C546.711,824.364 546.98,824.359 547.253,824.361C547.56,824.363 547.872,824.375 548.186,824.387C548.359,824.394 548.53,824.397 548.705,824.407C549.199,824.436 549.699,824.476 550.207,824.533C553.701,824.918 556.851,822.474 557.355,819.008L561.453,790.876C582.052,789.602 586.297,807.679 586.729,809.848Z" style="fill:rgb(247,239,227);fill-rule:nonzero;"/>
        </g>
        <g transform="matrix(1,0,0,1,-115,-115.11)">
            <path d="M646.329,134.543C654.506,129.1 664.531,127.797 673.855,130.981C683.111,134.138 690.206,141.233 693.318,150.452C708.409,194.956 728.772,284.209 701.531,393.12C699.092,388.974 696.646,384.722 694.13,380.348C687.823,369.38 681.311,358.073 674.016,346.926C700.057,280.877 670.92,190.998 669.648,187.148C668.919,184.939 667.064,183.289 664.785,182.821C662.505,182.351 660.152,183.138 658.61,184.879C632.574,214.286 610.603,261.361 603.042,278.561C583.414,268.223 561.396,261.611 536.205,258.442C548.064,236.746 585.369,175.166 646.329,134.543Z" style="fill:rgb(243,177,91);fill-rule:nonzero;"/>
        </g>
        <g transform="matrix(1,0,0,1,-115,-115.11)">
            <path d="M614.473,284.897C620.59,270.959 638.842,231.373 660.639,202.891C667.085,227.491 679.399,286.283 664.969,333.421C649.567,312.435 633.243,296.761 614.473,284.897Z" style="fill:rgb(247,239,227);fill-rule:nonzero;"/>
        </g>
        <g transform="matrix(1,0,0,1,-115,-115.11)">
            <path d="M601.792,292.198C602.154,292.545 602.545,292.869 602.995,293.131C625.126,306.058 643.684,324.445 661.397,350.997C661.707,351.46 662.07,351.873 662.474,352.235C669.995,363.588 676.731,375.281 683.243,386.609C688.425,395.618 693.321,404.129 698.505,412.332C702.904,419.321 707.107,425.391 711.27,430.753C675.167,420.623 642.025,434.487 609.737,447.995L606.85,449.203C589.339,456.502 570.001,455.044 553.793,445.207C537.577,435.363 527.357,418.872 525.753,399.965C522.045,355.975 523.333,306.037 525.257,269.862C525.451,269.879 525.648,269.894 525.842,269.911C555.346,272.564 580.203,279.865 601.792,292.198Z" style="fill:rgb(243,177,91);fill-rule:nonzero;"/>
        </g>
        <g transform="matrix(1,0,0,1,-115,-115.11)">
            <path d="M306.68,150.452C309.807,141.226 316.914,134.127 326.176,130.974C335.482,127.804 345.501,129.102 353.666,134.543C414.543,175.109 451.927,236.731 463.817,258.442C438.556,261.616 416.53,268.227 396.955,278.555C389.391,261.351 367.422,214.283 341.389,184.879C339.848,183.138 337.493,182.35 335.214,182.821C332.935,183.289 331.08,184.939 330.351,187.148C329.079,190.998 299.942,280.876 325.983,346.925C318.687,358.074 312.176,369.376 305.874,380.339C303.356,384.716 300.908,388.971 298.467,393.12C271.226,284.21 291.588,194.956 306.68,150.452Z" style="fill:rgb(243,177,91);fill-rule:nonzero;"/>
        </g>
        <g transform="matrix(1,0,0,1,-115,-115.11)">
            <path d="M339.36,202.892C361.14,231.359 379.406,270.959 385.525,284.898C366.799,296.74 350.474,312.418 335.034,333.433C320.599,286.296 332.913,227.498 339.36,202.892Z" style="fill:rgb(247,239,227);fill-rule:nonzero;"/>
        </g>
        <g transform="matrix(1,0,0,1,-115,-115.11)">
            <path d="M301.486,412.341C306.68,404.126 311.576,395.612 316.761,386.599C323.271,375.277 330.003,363.588 337.522,352.237C337.926,351.876 338.289,351.464 338.598,351.002C356.374,324.412 374.934,306.023 397.004,293.131C397.456,292.868 397.847,292.543 398.211,292.194C419.728,279.873 444.595,272.571 474.202,269.91C474.381,269.893 474.563,269.88 474.743,269.864C476.667,306.039 477.954,355.976 474.246,399.962C472.642,418.872 462.422,435.363 446.206,445.207C429.997,455.045 410.658,456.503 393.153,449.204L390.262,447.995C357.977,434.489 324.839,420.628 288.741,430.75C292.891,425.396 297.089,419.329 301.486,412.341Z" style="fill:rgb(243,177,91);fill-rule:nonzero;"/>
        </g>
        <g transform="matrix(1,0,0,1,-115,-115.11)">
            <path d="M326.091,687.637L329.074,683.933C329.797,683.036 330.257,681.957 330.407,680.815L339.252,613.743C342.943,615.247 346.64,616.673 350.308,617.984C358.569,620.949 367.207,623.634 375.963,625.96C382.238,627.648 388.836,629.212 395.633,630.624C401.245,663.571 418.119,707.166 427.974,730.873C429.854,735.391 431.166,740.166 431.875,745.074L436.655,777.796C418.833,777.644 408.637,788.029 403.745,797.925C394.441,792.451 383.971,792.179 374.914,794.487C374.491,790.909 374.156,787.296 373.935,783.669C373.095,770.575 373.488,756.857 375.134,741.738C375.508,738.29 373.018,735.192 369.572,734.816C366.138,734.453 363.023,736.93 362.649,740.379C362.049,745.893 361.666,751.183 361.384,756.386C348.079,736.229 328.446,722.362 308.536,719.169C312.456,707.787 318.317,697.203 326.091,687.637Z" style="fill:rgb(243,177,91);fill-rule:nonzero;"/>
        </g>
        <g transform="matrix(1,0,0,1,-115,-115.11)">
            <path d="M352.712,846.482C349.659,849.859 346.038,852.576 341.936,854.561C330.542,860.115 316.788,859.362 303.206,852.436C289.038,845.213 276.863,832.254 268.925,815.956C252.863,782.885 259.448,746.41 283.608,734.648C288.716,732.159 294.385,730.919 300.208,730.981C321.725,731.155 344.391,748.156 356.612,773.27C358.564,777.312 360.194,781.432 361.493,785.525C361.871,791.232 362.483,796.922 363.326,802.487C363.267,803.046 363.26,803.615 363.353,804.19C363.842,807.241 364.434,810.394 365.213,814.109C364.436,827.112 360.059,838.554 352.712,846.482Z" style="fill:rgb(247,239,227);fill-rule:nonzero;"/>
        </g>
        <g transform="matrix(1,0,0,1,-115,-115.11)">
            <path d="M372.054,839.22C373.338,843.151 374.668,846.958 376.001,850.631C372.837,849.871 369.921,849.024 367.267,848.092C369.089,845.33 370.682,842.362 372.054,839.22Z" style="fill:rgb(243,177,91);fill-rule:nonzero;"/>
        </g>
        <g transform="matrix(1,0,0,1,-115,-115.11)">
            <path d="M623.997,850.631C625.329,846.963 626.658,843.16 627.942,839.234C629.314,842.374 630.906,845.339 632.727,848.096C630.078,849.026 627.162,849.871 623.997,850.631Z" style="fill:rgb(243,177,91);fill-rule:nonzero;"/>
        </g>
        <g transform="matrix(1,0,0,1,-115,-115.11)">
            <path d="M731.078,815.951C723.137,832.254 710.959,845.213 696.792,852.436C683.212,859.359 669.458,860.115 658.047,854.553C653.963,852.577 650.342,849.861 647.236,846.425C639.906,838.518 635.521,827.038 634.777,814.184C634.79,814.121 634.802,814.057 634.813,813.992C635.473,810.941 636.072,807.735 636.645,804.199C636.738,803.626 636.731,803.058 636.674,802.5C637.565,796.643 638.182,791.001 638.552,785.349C639.83,781.359 641.445,777.299 643.376,773.293C655.634,748.158 678.316,731.154 699.827,730.981C699.956,730.979 700.081,730.979 700.207,730.979C705.977,730.979 711.413,732.21 716.392,734.649C740.549,746.41 747.138,782.885 731.078,815.951Z" style="fill:rgb(247,239,227);fill-rule:nonzero;"/>
        </g>
        <g transform="matrix(1,0,0,1,-115,-115.11)">
            <path d="M489.056,478.408C495.047,483.861 504.961,483.861 510.952,478.408C516.095,473.727 520.801,467.836 524.742,462.164C530.894,453.31 523.626,441.964 511.811,441.964L488.197,441.964C476.382,441.964 469.114,453.31 475.266,462.164C479.207,467.836 483.913,473.727 489.056,478.408Z" style="fill-rule:nonzero;"/>
            <ellipse cx="416.75" cy="408.998" rx="17.246" ry="24.388"/>
            <g transform="matrix(0.899212,-0.437513,0.437513,0.899212,-323.976,223.263)">
                <ellipse cx="322.596" cy="814.81" rx="17.975" ry="26.658"/>
            </g>
            <g transform="matrix(0.830193,-0.557477,0.557477,0.830193,-377.228,297.553)">
                <ellipse cx="299.818" cy="767.996" rx="15.312" ry="15.312"/>
            </g>
            <path d="M334.865,772.713C339.155,770.626 340.94,765.457 338.853,761.168C336.766,756.879 331.597,755.094 327.308,757.181C323.019,759.267 321.234,764.436 323.321,768.725C325.407,773.014 330.576,774.8 334.865,772.713Z" style="fill-rule:nonzero;"/>
            <path d="M274.343,782.951C270.054,785.038 268.269,790.207 270.355,794.496C272.442,798.785 277.611,800.57 281.9,798.483C286.189,796.396 287.975,791.228 285.888,786.939C283.801,782.649 278.632,780.864 274.343,782.951Z" style="fill-rule:nonzero;"/>
            <path d="M689.075,790.838C680.149,786.495 667.69,793.707 661.249,806.946C654.807,820.185 656.822,834.438 665.749,838.781C674.675,843.124 687.134,835.913 693.575,822.674C700.017,809.435 698.002,795.182 689.075,790.838Z" style="fill-rule:nonzero;"/>
            <path d="M706.889,754.227C699.285,750.527 690.121,753.692 686.421,761.296C682.721,768.901 685.886,778.064 693.491,781.764C701.095,785.464 710.259,782.299 713.958,774.695C717.658,767.091 714.493,757.927 706.889,754.227Z" style="fill-rule:nonzero;"/>
            <path d="M665.143,772.713C669.432,774.8 674.601,773.014 676.688,768.725C678.774,764.436 676.989,759.267 672.7,757.181C668.411,755.094 663.242,756.879 661.155,761.168C659.068,765.457 660.854,770.626 665.143,772.713Z" style="fill-rule:nonzero;"/>
            <path d="M714.12,786.939C712.033,791.228 713.819,796.396 718.108,798.483C722.397,800.57 727.566,798.785 729.653,794.496C731.74,790.207 729.954,785.038 725.665,782.951C721.376,780.864 716.207,782.649 714.12,786.939Z" style="fill-rule:nonzero;"/>
            <path d="M458.746,497.649C458.746,502.429 461.167,506.874 465.329,510.165C465.213,511.711 465.149,513.257 465.149,514.791C465.149,524.105 467.225,533.041 471.143,540.619C477.595,553.168 488.382,560.661 499.999,560.661C511.656,560.661 522.446,553.163 528.849,540.633C532.774,533.041 534.85,524.105 534.85,514.791C534.85,513.256 534.786,511.708 534.669,510.161C538.839,506.862 541.255,502.423 541.255,497.649C541.255,494.182 538.443,491.37 534.976,491.37C531.508,491.37 528.696,494.182 528.696,497.649C528.696,498.645 527.715,499.85 526.159,500.855C525.732,500.968 525.312,501.115 524.909,501.316C522.839,502.352 520.202,502.922 517.486,502.922C510.881,502.922 506.499,499.749 506.499,497.649C506.499,494.059 503.589,491.149 499.999,491.149C496.409,491.149 493.499,494.059 493.499,497.649C493.499,499.749 489.117,502.922 482.512,502.922C479.797,502.922 477.16,502.352 475.09,501.316C474.685,501.114 474.262,500.965 473.833,500.853C472.29,499.855 471.304,498.647 471.304,497.649C471.304,494.182 468.493,491.37 465.025,491.37C461.558,491.37 458.746,494.182 458.746,497.649Z" style="fill-rule:nonzero;"/>
            <clipPath id="_clip1">
                <path d="M458.746,497.649C458.746,502.429 461.167,506.874 465.329,510.165C465.213,511.711 465.149,513.257 465.149,514.791C465.149,524.105 467.225,533.041 471.143,540.619C477.595,553.168 488.382,560.661 499.999,560.661C511.656,560.661 522.446,553.163 528.849,540.633C532.774,533.041 534.85,524.105 534.85,514.791C534.85,513.256 534.786,511.708 534.669,510.161C538.839,506.862 541.255,502.423 541.255,497.649C541.255,494.182 538.443,491.37 534.976,491.37C531.508,491.37 528.696,494.182 528.696,497.649C528.696,498.645 527.715,499.85 526.159,500.855C525.732,500.968 525.312,501.115 524.909,501.316C522.839,502.352 520.202,502.922 517.486,502.922C510.881,502.922 506.499,499.749 506.499,497.649C506.499,494.059 503.589,491.149 499.999,491.149C496.409,491.149 493.499,494.059 493.499,497.649C493.499,499.749 489.117,502.922 482.512,502.922C479.797,502.922 477.16,502.352 475.09,501.316C474.685,501.114 474.262,500.965 473.833,500.853C472.29,499.855 471.304,498.647 471.304,497.649C471.304,494.182 468.493,491.37 465.025,491.37C461.558,491.37 458.746,494.182 458.746,497.649Z" clip-rule="nonzero"/>
            </clipPath>
            <g clip-path="url(#_clip1)">
                <rect x="29" y="395" width="161" height="109" style="fill:rgb(246,113,133);"/>
            </g>
            <path d="M517.287,534.689C513.137,542.812 506.674,547.661 499.999,547.661C493.35,547.661 486.885,542.807 482.697,534.661C482.116,533.537 481.603,532.36 481.13,531.156C486.144,524.933 492.75,521.133 500,521.133C507.248,521.133 513.854,524.932 518.868,531.154C518.392,532.368 517.874,533.554 517.287,534.689Z" style="fill:rgb(246,113,133);fill-rule:nonzero;"/>
            <path d="M564.035,421.53C568.395,420.486 578.899,419.018 583.498,421.13C584.347,421.521 585.239,421.705 586.116,421.705C588.492,421.705 590.767,420.347 591.825,418.044C593.272,414.892 591.889,411.166 588.74,409.719C584.411,407.73 578.844,407.347 573.834,407.563C576.452,404.034 579.386,401.744 582.605,400.721C589.369,398.571 595.863,402.682 596.071,402.815C598.935,404.724 602.816,403.97 604.754,401.111C606.698,398.239 605.947,394.335 603.074,392.391C602.611,392.078 591.625,384.798 579,388.69C569.471,391.634 561.98,399.852 556.735,413.116C555.873,415.292 556.293,417.77 557.829,419.539C559.365,421.309 561.766,422.079 564.035,421.53Z" style="fill-rule:nonzero;"/>
        </g>
    </g>
</svg>
