<?xml version="1.0" encoding="UTF-8" standalone="no"?>
<!DOCTYPE svg PUBLIC "-//W3C//DTD SVG 1.1//EN" "http://www.w3.org/Graphics/SVG/1.1/DTD/svg11.dtd">
<svg width="100%" height="100%" viewBox="0 0 256 256" version="1.1" xmlns="http://www.w3.org/2000/svg" xmlns:xlink="http://www.w3.org/1999/xlink" xml:space="preserve" xmlns:serif="http://www.serif.com/" style="fill-rule:evenodd;clip-rule:evenodd;stroke-linejoin:round;stroke-miterlimit:2;">
    <g transform="matrix(1,0,0,1,0,35.6287)">
        <path d="M250.716,70.497C244.951,66.497 231.74,64.997 221.412,66.997C220.211,56.998 214.687,48.248 205.079,40.498L199.555,36.499L195.711,42.248C190.908,49.748 188.506,60.248 189.226,70.247C189.466,73.747 190.667,79.997 194.27,85.497C190.908,87.496 183.942,89.996 174.815,89.996L1.155,89.996L0.674,91.996C-1.007,101.996 -1.007,133.245 18.689,157.244C33.581,175.493 55.679,184.743 84.742,184.743C147.673,184.743 194.27,154.494 216.128,99.746C224.775,99.996 243.27,99.746 252.637,80.997C252.877,80.497 253.358,79.497 255.039,75.747L256,73.747L250.716,70.497ZM139.987,0L113.565,0L113.565,24.999L139.987,24.999L139.987,0ZM139.987,29.999L113.565,29.999L113.565,54.998L139.987,54.998L139.987,29.999ZM108.761,29.999L82.34,29.999L82.34,54.998L108.761,54.998L108.761,29.999ZM77.536,29.999L51.115,29.999L51.115,54.998L77.536,54.998L77.536,29.999ZM46.311,59.998L19.89,59.998L19.89,84.997L46.311,84.997L46.311,59.998ZM77.536,59.998L51.115,59.998L51.115,84.997L77.536,84.997L77.536,59.998ZM108.761,59.998L82.34,59.998L82.34,84.997L108.761,84.997L108.761,59.998ZM139.987,59.998L113.565,59.998L113.565,84.997L139.987,84.997L139.987,59.998ZM171.212,59.998L144.79,59.998L144.79,84.997L171.212,84.997L171.212,59.998Z" style="fill:rgb(35,150,237);fill-rule:nonzero;"/>
    </g>
</svg>
