<?xml version="1.0" encoding="UTF-8" standalone="no"?>
<!DOCTYPE svg PUBLIC "-//W3C//DTD SVG 1.1//EN" "http://www.w3.org/Graphics/SVG/1.1/DTD/svg11.dtd">
<svg width="100%" height="100%" viewBox="0 0 290 290" version="1.1" xmlns="http://www.w3.org/2000/svg" xmlns:xlink="http://www.w3.org/1999/xlink" xml:space="preserve" xmlns:serif="http://www.serif.com/" style="fill-rule:evenodd;clip-rule:evenodd;stroke-linejoin:round;stroke-miterlimit:2;">
    <g transform="matrix(1,0,0,1,17.3304,-4.6925)">
        <path d="M243.289,131.526C243.289,198.714 188.832,253.171 121.645,253.171C54.458,253.171 0,198.714 0,131.526C0,64.339 54.458,9.882 121.645,9.882C188.832,9.823 243.289,64.339 243.289,131.526" style="fill:rgb(0,140,193);fill-rule:nonzero;"/>
    </g>
    <g transform="matrix(1,0,0,1,17,0)">
        <g transform="matrix(1,0,0,1,0.330419,-4.6925)">
            <path d="M53.927,91.626C53.927,96.99 49.566,101.351 44.203,101.351C38.839,101.351 34.478,96.99 34.478,91.626C34.478,86.263 38.839,81.902 44.203,81.902C49.624,81.902 53.927,86.263 53.927,91.626" style="fill:white;fill-rule:nonzero;"/>
        </g>
        <g transform="matrix(1,0,0,1,0.330419,-4.6925)">
            <path d="M55.577,118.325C55.577,123.688 51.216,128.05 45.853,128.05C40.49,128.05 36.128,123.688 36.128,118.325C36.128,112.961 40.49,108.601 45.853,108.601C51.216,108.601 55.577,112.903 55.577,118.325" style="fill:white;fill-rule:nonzero;"/>
        </g>
        <g transform="matrix(1,0,0,1,0.330419,-4.6925)">
            <path d="M61.529,146.615C61.529,151.978 57.168,156.339 51.805,156.339C46.442,156.339 42.08,151.978 42.08,146.615C42.08,141.25 46.442,136.89 51.805,136.89C57.168,136.831 61.529,141.192 61.529,146.615" style="fill:white;fill-rule:nonzero;"/>
        </g>
        <g transform="matrix(1,0,0,1,0.330419,-4.6925)">
            <path d="M74.849,171.957C74.849,177.32 70.487,181.682 65.124,181.682C59.761,181.682 55.4,177.32 55.4,171.957C55.4,166.593 59.761,162.233 65.124,162.233C70.487,162.173 74.849,166.535 74.849,171.957" style="fill:white;fill-rule:nonzero;"/>
        </g>
        <g transform="matrix(1,0,0,1,0.330419,-4.6925)">
            <path d="M178.99,207.378C178.99,212.741 174.629,217.102 169.265,217.102C163.902,217.102 159.541,212.741 159.541,207.378C159.541,202.015 163.902,197.653 169.265,197.653C174.629,197.653 178.99,202.015 178.99,207.378" style="fill:white;fill-rule:nonzero;"/>
        </g>
        <g transform="matrix(1,0,0,1,0.330419,-4.6925)">
            <path d="M196.671,186.455C196.671,191.818 192.31,196.179 186.945,196.179C181.582,196.179 177.221,191.818 177.221,186.455C177.221,181.092 181.582,176.73 186.945,176.73C192.31,176.73 196.671,181.092 196.671,186.455" style="fill:white;fill-rule:nonzero;"/>
        </g>
        <g transform="matrix(1,0,0,1,0.330419,-4.6925)">
            <path d="M145.396,38.525C145.396,43.888 141.034,48.249 135.671,48.249C130.308,48.249 125.947,43.888 125.947,38.525C125.947,33.162 130.308,28.801 135.671,28.801C141.034,28.801 145.396,33.162 145.396,38.525" style="fill:white;fill-rule:nonzero;"/>
        </g>
        <g transform="matrix(1,0,0,1,0.330419,-4.6925)">
            <path d="M119.818,29.567C119.818,34.93 115.456,39.291 110.093,39.291C104.73,39.291 100.369,34.93 100.369,29.567C100.369,24.204 104.73,19.842 110.093,19.842C115.456,19.842 119.818,24.204 119.818,29.567" style="fill:white;fill-rule:nonzero;"/>
        </g>
    </g>
    <g transform="matrix(1,0,0,1,17.3304,-4.6925)">
        <path d="M188.773,37.699C224.577,37.699 253.603,66.726 253.603,102.53C253.603,138.334 224.577,167.36 188.773,167.36C152.968,167.36 123.943,138.334 123.943,102.53C123.943,66.726 152.968,37.699 188.773,37.699" style="fill:rgb(102,178,69);fill-rule:nonzero;"/>
    </g>
    <g transform="matrix(1,0,0,1,17.3304,-4.6925)">
        <path d="M188.773,169.096C152.068,169.096 122.206,139.234 122.206,102.53C122.206,65.825 152.068,35.964 188.773,35.964C225.477,35.964 255.339,65.825 255.339,102.53C255.339,139.234 225.477,169.096 188.773,169.096ZM188.773,39.437C153.983,39.437 125.679,67.741 125.679,102.53C125.679,137.32 153.983,165.623 188.773,165.623C223.563,165.623 251.866,137.32 251.866,102.53C251.866,67.741 223.563,39.437 188.773,39.437Z" style="fill:white;fill-rule:nonzero;"/>
    </g>
    <g transform="matrix(1,0,0,1,17.3304,-4.6925)">
        <path d="M99.956,181.682C129.25,181.682 152.999,205.429 152.999,234.724C152.999,264.018 129.25,287.767 99.956,287.767C70.661,287.767 46.913,264.018 46.913,234.724C46.913,205.429 70.661,181.682 99.956,181.682" style="fill:rgb(102,178,69);fill-rule:nonzero;"/>
    </g>
    <g transform="matrix(1,0,0,1,17.3304,-4.6925)">
        <path d="M99.956,289.503C69.75,289.503 45.177,264.929 45.177,234.724C45.177,204.518 69.75,179.945 99.956,179.945C130.162,179.945 154.735,204.518 154.735,234.724C154.735,264.929 130.162,289.503 99.956,289.503ZM99.956,183.418C71.666,183.418 48.65,206.433 48.65,234.724C48.65,263.014 71.666,286.03 99.956,286.03C128.246,286.03 151.262,263.014 151.262,234.724C151.262,206.433 128.246,183.418 99.956,183.418Z" style="fill:white;fill-rule:nonzero;"/>
    </g>
    <g transform="matrix(1,0,0,1,17,0)">
        <path d="M56.284,1.984C75.814,1.984 91.646,17.817 91.646,37.346C91.646,56.876 75.814,72.708 56.284,72.708C36.755,72.708 20.923,56.876 20.923,37.346C20.923,17.817 36.755,1.984 56.284,1.984" style="fill:rgb(102,178,69);fill-rule:nonzero;"/>
    </g>
    <g transform="matrix(1,0,0,1,17,0)">
        <path d="M56.284,74.444C35.828,74.444 19.186,57.802 19.186,37.346C19.186,16.89 35.828,0.248 56.284,0.248C76.74,0.248 93.382,16.89 93.382,37.346C93.382,57.802 76.74,74.444 56.284,74.444ZM56.284,3.721C37.743,3.721 22.659,18.805 22.659,37.346C22.659,55.887 37.743,70.972 56.284,70.972C74.825,70.972 89.91,55.887 89.91,37.346C89.91,18.805 74.825,3.721 56.284,3.721Z" style="fill:white;fill-rule:nonzero;"/>
    </g>
</svg>
